<svg width="35" height="35" viewBox="0 0 35 35" fill="none" xmlns="http://www.w3.org/2000/svg">
<path opacity="0.75" d="M34.7341 4.76196H5.92383V34.5896H34.7341V4.76196Z" fill="#1D1C1C"/>
<path d="M12.5417 5.59173C12.3145 5.5714 12.1037 5.45352 11.9551 5.26366C11.8066 5.07381 11.7322 4.82729 11.7481 4.57759C11.7846 3.99519 11.6108 3.42045 11.2643 2.97764C10.9179 2.53483 10.4266 2.25953 9.89682 2.21126C9.67602 2.17425 9.4746 2.05161 9.32907 1.86556C9.18353 1.67951 9.10352 1.44238 9.10352 1.19712C9.10352 0.95187 9.18353 0.714731 9.32907 0.528685C9.4746 0.342639 9.67602 0.219996 9.89682 0.182983C11.7951 0.182983 13.3336 2.15161 13.336 4.57759C13.3519 4.82743 13.2774 5.07408 13.1287 5.26396C12.98 5.45384 12.769 5.57163 12.5417 5.59173Z" fill="#9595AC"/>
<path d="M20.4786 5.59173C20.2514 5.5714 20.0406 5.45352 19.8921 5.26366C19.7435 5.07381 19.6691 4.82729 19.6851 4.57759C19.7215 3.99519 19.5477 3.42045 19.2013 2.97764C18.8548 2.53483 18.3636 2.25953 17.8338 2.21126C17.613 2.17425 17.4116 2.05161 17.2661 1.86556C17.1205 1.67951 17.0405 1.44238 17.0405 1.19712C17.0405 0.95187 17.1205 0.714731 17.2661 0.528685C17.4116 0.342639 17.613 0.219996 17.8338 0.182983C19.732 0.182983 21.2704 2.15161 21.2729 4.57759C21.2888 4.82743 21.2143 5.07408 21.0656 5.26396C20.9169 5.45384 20.7059 5.57163 20.4786 5.59173Z" fill="#9595AC"/>
<path d="M28.4127 5.59173C28.1855 5.5714 27.9748 5.45352 27.8262 5.26366C27.6777 5.07381 27.6033 4.82729 27.6192 4.57759C27.6556 3.99519 27.4818 3.42045 27.1354 2.97764C26.789 2.53483 26.2977 2.25953 25.7679 2.21126C25.5471 2.17425 25.3457 2.05161 25.2002 1.86556C25.0546 1.67951 24.9746 1.44238 24.9746 1.19712C24.9746 0.95187 25.0546 0.714731 25.2002 0.528685C25.3457 0.342639 25.5471 0.219996 25.7679 0.182983C27.6661 0.182983 29.2046 2.15161 29.2071 4.57759C29.223 4.82743 29.1485 5.07408 28.9998 5.26396C28.8511 5.45384 28.6401 5.57163 28.4127 5.59173Z" fill="#9595AC"/>
<path d="M29.4096 4.66162H23.2706C20.9975 4.66162 19.1548 6.685 19.1548 9.18096V29.0182C19.1548 31.5141 20.9975 33.5375 23.2706 33.5375H29.4096C31.6827 33.5375 33.5254 31.5141 33.5254 29.0182V9.18096C33.5254 6.685 31.6827 4.66162 29.4096 4.66162Z" fill="#EBEBEB"/>
<path d="M29.8393 4.66162H5.07071C4.6161 4.66162 4.24756 5.0663 4.24756 5.56549V32.6336C4.24756 33.1328 4.6161 33.5375 5.07071 33.5375H29.8393C30.2939 33.5375 30.6625 33.1328 30.6625 32.6336V5.56549C30.6625 5.0663 30.2939 4.66162 29.8393 4.66162Z" fill="#DEDEDE"/>
<path d="M30.6243 4.96889C30.5573 4.85297 30.4653 4.75701 30.3565 4.68952C30.2476 4.62203 30.1253 4.5851 30.0003 4.58203H5.13623C4.94605 4.59415 4.76549 4.67791 4.62499 4.81918C4.48449 4.96045 4.39265 5.15059 4.36494 5.35755L0.1323 27.6677C0.103589 27.8156 0.101828 27.9683 0.127117 28.1169C0.152406 28.2655 0.204245 28.4071 0.279644 28.5337C0.346589 28.6496 0.438572 28.7455 0.547423 28.813C0.656273 28.8805 0.77862 28.9174 0.903592 28.9205H25.7685C25.9587 28.9084 26.1393 28.8246 26.2798 28.6834C26.4203 28.5421 26.5121 28.3519 26.5398 28.145L30.7724 5.83479C30.801 5.68687 30.8027 5.53419 30.7772 5.38557C30.7518 5.23695 30.6998 5.09533 30.6243 4.96889Z" fill="#86B8D9"/>
<path d="M30.7731 5.83479C30.8018 5.68692 30.8036 5.53428 30.7783 5.38566C30.753 5.23704 30.7012 5.09539 30.6258 4.96888C30.5588 4.85296 30.4668 4.757 30.358 4.68951C30.2491 4.62202 30.1268 4.5851 30.0018 4.58203H5.13518C4.945 4.59415 4.76443 4.67791 4.62393 4.81918C4.48343 4.96045 4.39159 5.15058 4.36389 5.35754L3.16455 11.6846H29.6627L30.7731 5.83479Z" fill="#82D6F9"/>
<path d="M19.1562 17.0907H17.0399C16.8191 17.0537 16.6177 16.931 16.4721 16.7449C16.3266 16.5587 16.2466 16.3215 16.2466 16.0761C16.2466 15.8308 16.3266 15.5935 16.4721 15.4074C16.6177 15.2213 16.8191 15.0986 17.0399 15.0615H19.1562C19.377 15.0986 19.5784 15.2213 19.7239 15.4074C19.8694 15.5935 19.9495 15.8308 19.9495 16.0761C19.9495 16.3215 19.8694 16.5587 19.7239 16.7449C19.5784 16.931 19.377 17.0537 19.1562 17.0907Z" fill="#F05454"/>
<path d="M13.8657 17.0907H11.7493C11.5285 17.0537 11.3271 16.931 11.1816 16.7449C11.0361 16.5587 10.9561 16.3215 10.9561 16.0761C10.9561 15.8308 11.0361 15.5935 11.1816 15.4074C11.3271 15.2213 11.5285 15.0986 11.7493 15.0615H13.8657C14.0865 15.0986 14.2879 15.2213 14.4334 15.4074C14.5789 15.5935 14.6589 15.8308 14.6589 16.0761C14.6589 16.3215 14.5789 16.5587 14.4334 16.7449C14.2879 16.931 14.0865 17.0537 13.8657 17.0907Z" fill="#F05454"/>
<path d="M8.57513 17.0907H6.4588C6.23801 17.0537 6.0366 16.931 5.89107 16.7449C5.74554 16.5587 5.66553 16.3215 5.66553 16.0761C5.66553 15.8308 5.74554 15.5935 5.89107 15.4074C6.0366 15.2213 6.23801 15.0986 6.4588 15.0615H8.57513C8.79592 15.0986 8.99733 15.2213 9.14286 15.4074C9.28839 15.5935 9.36841 15.8308 9.36841 16.0761C9.36841 16.3215 9.28839 16.5587 9.14286 16.7449C8.99733 16.931 8.79592 17.0537 8.57513 17.0907Z" fill="#F05454"/>
<path d="M24.4467 17.0907H22.3304C22.1096 17.0537 21.9082 16.931 21.7627 16.7449C21.6171 16.5587 21.5371 16.3215 21.5371 16.0761C21.5371 15.8308 21.6171 15.5935 21.7627 15.4074C21.9082 15.2213 22.1096 15.0986 22.3304 15.0615H24.4467C24.6675 15.0986 24.8689 15.2213 25.0145 15.4074C25.16 15.5935 25.24 15.8308 25.24 16.0761C25.24 16.3215 25.16 16.5587 25.0145 16.7449C24.8689 16.931 24.6675 17.0537 24.4467 17.0907Z" fill="#F05454"/>
<path d="M18.0971 21.1474H15.9808C15.76 21.1104 15.5586 20.9876 15.413 20.8015C15.2675 20.6154 15.1875 20.3781 15.1875 20.1328C15.1875 19.8874 15.2675 19.6502 15.413 19.464C15.5586 19.2779 15.76 19.1552 15.9808 19.1182H18.0971C18.3179 19.1552 18.5193 19.2779 18.6648 19.464C18.8104 19.6502 18.8904 19.8874 18.8904 20.1328C18.8904 20.3781 18.8104 20.6154 18.6648 20.8015C18.5193 20.9876 18.3179 21.1104 18.0971 21.1474Z" fill="#F05454"/>
<path d="M12.808 21.1474H10.6917C10.4709 21.1104 10.2695 20.9876 10.124 20.8015C9.97845 20.6154 9.89844 20.3781 9.89844 20.1328C9.89844 19.8874 9.97845 19.6502 10.124 19.464C10.2695 19.2779 10.4709 19.1552 10.6917 19.1182H12.808C13.0288 19.1552 13.2302 19.2779 13.3758 19.464C13.5213 19.6502 13.6013 19.8874 13.6013 20.1328C13.6013 20.3781 13.5213 20.6154 13.3758 20.8015C13.2302 20.9876 13.0288 21.1104 12.808 21.1474Z" fill="#F05454"/>
<path d="M7.51751 21.1474H5.40119C5.18039 21.1104 4.97898 20.9876 4.83346 20.8015C4.68793 20.6154 4.60791 20.3781 4.60791 20.1328C4.60791 19.8874 4.68793 19.6502 4.83346 19.464C4.97898 19.2779 5.18039 19.1552 5.40119 19.1182H7.51751C7.73831 19.1552 7.93972 19.2779 8.08525 19.464C8.23077 19.6502 8.31079 19.8874 8.31079 20.1328C8.31079 20.3781 8.23077 20.6154 8.08525 20.8015C7.93972 20.9876 7.73831 21.1104 7.51751 21.1474Z" fill="#F05454"/>
<path d="M23.3876 21.1474H21.2713C21.0505 21.1104 20.8491 20.9876 20.7036 20.8015C20.5581 20.6154 20.478 20.3781 20.478 20.1328C20.478 19.8874 20.5581 19.6502 20.7036 19.464C20.8491 19.2779 21.0505 19.1552 21.2713 19.1182H23.3876C23.6084 19.1552 23.8098 19.2779 23.9554 19.464C24.1009 19.6502 24.1809 19.8874 24.1809 20.1328C24.1809 20.3781 24.1009 20.6154 23.9554 20.8015C23.8098 20.9876 23.6084 21.1104 23.3876 21.1474Z" fill="#F05454"/>
<path d="M17.5693 25.2038H15.453C15.2322 25.1668 15.0307 25.0441 14.8852 24.8579C14.7397 24.6718 14.6597 24.4345 14.6597 24.1892C14.6597 23.9438 14.7397 23.7066 14.8852 23.5204C15.0307 23.3343 15.2322 23.2116 15.453 23.1746H17.5693C17.7901 23.2116 17.9915 23.3343 18.137 23.5204C18.2825 23.7066 18.3625 23.9438 18.3625 24.1892C18.3625 24.4345 18.2825 24.6718 18.137 24.8579C17.9915 25.0441 17.7901 25.1668 17.5693 25.2038Z" fill="#F05454"/>
<path d="M12.2787 25.2038H10.1624C9.94163 25.1668 9.74022 25.0441 9.59469 24.8579C9.44916 24.6718 9.36914 24.4345 9.36914 24.1892C9.36914 23.9438 9.44916 23.7066 9.59469 23.5204C9.74022 23.3343 9.94163 23.2116 10.1624 23.1746H12.2787C12.4995 23.2116 12.7009 23.3343 12.8465 23.5204C12.992 23.7066 13.072 23.9438 13.072 24.1892C13.072 24.4345 12.992 24.6718 12.8465 24.8579C12.7009 25.0441 12.4995 25.1668 12.2787 25.2038Z" fill="#F05454"/>
<path d="M6.98822 25.2038H4.87189C4.6511 25.1668 4.44969 25.0441 4.30416 24.8579C4.15863 24.6718 4.07861 24.4345 4.07861 24.1892C4.07861 23.9438 4.15863 23.7066 4.30416 23.5204C4.44969 23.3343 4.6511 23.2116 4.87189 23.1746H6.98822C7.20901 23.2116 7.41042 23.3343 7.55595 23.5204C7.70148 23.7066 7.78149 23.9438 7.78149 24.1892C7.78149 24.4345 7.70148 24.6718 7.55595 24.8579C7.41042 25.0441 7.20901 25.1668 6.98822 25.2038Z" fill="#F05454"/>
<path d="M22.8593 25.2038H20.743C20.5222 25.1668 20.3208 25.0441 20.1753 24.8579C20.0297 24.6718 19.9497 24.4345 19.9497 24.1892C19.9497 23.9438 20.0297 23.7066 20.1753 23.5204C20.3208 23.3343 20.5222 23.2116 20.743 23.1746H22.8593C23.0801 23.2116 23.2815 23.3343 23.4271 23.5204C23.5726 23.7066 23.6526 23.9438 23.6526 24.1892C23.6526 24.4345 23.5726 24.6718 23.4271 24.8579C23.2815 25.0441 23.0801 25.1668 22.8593 25.2038Z" fill="#F05454"/>
<path d="M25.7684 8.97636C23.8694 8.97636 22.3301 7.00864 22.3301 4.58175C22.3301 2.15486 23.8694 0.187134 25.7684 0.187134C25.9892 0.224147 26.1906 0.346791 26.3361 0.532838C26.4816 0.718885 26.5616 0.956022 26.5616 1.20128C26.5616 1.44653 26.4816 1.68367 26.3361 1.86972C26.1906 2.05576 25.9892 2.1784 25.7684 2.21542C25.2383 2.263 24.7467 2.53811 24.4002 2.98108C24.0536 3.42406 23.88 3.99919 23.9171 4.58175C23.8803 5.16416 24.0539 5.73906 24.4005 6.18184C24.747 6.62461 25.2385 6.89959 25.7684 6.94718C25.9892 6.98419 26.1906 7.10683 26.3361 7.29288C26.4816 7.47893 26.5616 7.71607 26.5616 7.96132C26.5616 8.20657 26.4816 8.44371 26.3361 8.62976C26.1906 8.81581 25.9892 8.93845 25.7684 8.97546V8.97636Z" fill="#9595AC"/>
<path d="M17.8332 8.97636C15.9343 8.97636 14.395 7.00864 14.395 4.58175C14.395 2.15486 15.9343 0.187134 17.8332 0.187134C18.054 0.224147 18.2554 0.346791 18.4009 0.532838C18.5465 0.718885 18.6265 0.956022 18.6265 1.20128C18.6265 1.44653 18.5465 1.68367 18.4009 1.86972C18.2554 2.05576 18.054 2.1784 17.8332 2.21542C17.3032 2.263 16.8116 2.53811 16.465 2.98108C16.1185 3.42406 15.9449 3.99919 15.982 4.58175C15.9451 5.16416 16.1188 5.73906 16.4653 6.18184C16.8118 6.62461 17.3033 6.89959 17.8332 6.94718C18.054 6.98419 18.2554 7.10683 18.4009 7.29288C18.5465 7.47893 18.6265 7.71607 18.6265 7.96132C18.6265 8.20657 18.5465 8.44371 18.4009 8.62976C18.2554 8.81581 18.054 8.93845 17.8332 8.97546V8.97636Z" fill="#9595AC"/>
<path d="M9.89679 8.97636C7.99779 8.97636 6.4585 7.00864 6.4585 4.58175C6.4585 2.15486 7.99779 0.187134 9.89679 0.187134C10.1176 0.224147 10.319 0.346791 10.4645 0.532838C10.61 0.718885 10.6901 0.956022 10.6901 1.20128C10.6901 1.44653 10.61 1.68367 10.4645 1.86972C10.319 2.05576 10.1176 2.1784 9.89679 2.21542C9.36673 2.263 8.87511 2.53811 8.52856 2.98108C8.182 3.42406 8.00845 3.99919 8.04553 4.58175C8.00867 5.16416 8.18233 5.73906 8.52887 6.18184C8.8754 6.62461 9.36688 6.89959 9.89679 6.94718C10.1176 6.98419 10.319 7.10683 10.4645 7.29288C10.61 7.47893 10.6901 7.71607 10.6901 7.96132C10.6901 8.20657 10.61 8.44371 10.4645 8.62976C10.319 8.81581 10.1176 8.93845 9.89679 8.97546V8.97636Z" fill="#9595AC"/>
</svg>
